<svg width="565" height="46" viewBox="0 0 565 46" fill="none" xmlns="http://www.w3.org/2000/svg">
<path d="M20 35.0723C20 36.0618 19.7331 36.8203 19.1992 37.3477C18.6654 37.875 17.9102 38.1387 16.9336 38.1387C15.957 38.1387 15.1693 37.7936 14.5703 37.1035C13.9779 36.4134 13.6816 35.4792 13.6816 34.3008V33.4219C13.6816 32.2891 13.9811 31.3776 14.5801 30.6875C15.179 29.9909 15.9635 29.6426 16.9336 29.6426C17.9036 29.6426 18.6589 29.9062 19.1992 30.4336C19.7396 30.9544 20.0098 31.7096 20.0098 32.6992H19.043C19.043 31.2409 18.3398 30.5117 16.9336 30.5117C16.2435 30.5117 15.6901 30.7754 15.2734 31.3027C14.8568 31.8301 14.6484 32.5527 14.6484 33.4707V34.3594C14.6484 35.2318 14.8535 35.9349 15.2637 36.4688C15.6738 36.9961 16.2305 37.2598 16.9336 37.2598C17.6237 37.2598 18.1445 37.0872 18.4961 36.7422C18.8542 36.3971 19.0332 35.8405 19.0332 35.0723H20ZM10.9277 33.8809C10.9277 35.0267 11.1914 36.1009 11.7188 37.1035C12.2526 38.1061 12.998 38.9004 13.9551 39.4863C14.9121 40.0723 15.9375 40.3652 17.0312 40.3652C18.1185 40.3652 19.1341 40.0755 20.0781 39.4961C21.0221 38.9167 21.7643 38.1289 22.3047 37.1328C22.8516 36.1302 23.125 35.0462 23.125 33.8809C23.125 32.722 22.8548 31.6478 22.3145 30.6582C21.7741 29.6621 21.0286 28.8776 20.0781 28.3047C19.1341 27.7253 18.1185 27.4355 17.0312 27.4355C15.918 27.4355 14.8828 27.7318 13.9258 28.3242C12.9688 28.9167 12.2298 29.7077 11.709 30.6973C11.1882 31.6868 10.9277 32.748 10.9277 33.8809ZM10.0977 33.8809C10.0977 32.5658 10.4004 31.3451 11.0059 30.2188C11.6178 29.0924 12.4609 28.207 13.5352 27.5625C14.6159 26.9115 15.7812 26.5859 17.0312 26.5859C18.2812 26.5859 19.4434 26.9115 20.5176 27.5625C21.5918 28.207 22.4316 29.0924 23.0371 30.2188C23.6491 31.3451 23.9551 32.5658 23.9551 33.8809C23.9551 35.1634 23.6621 36.3646 23.0762 37.4844C22.4902 38.6042 21.6569 39.5059 20.5762 40.1895C19.502 40.8665 18.3203 41.2051 17.0312 41.2051C15.7487 41.2051 14.5671 40.8698 13.4863 40.1992C12.4121 39.5221 11.5788 38.6237 10.9863 37.5039C10.3939 36.3841 10.0977 35.1764 10.0977 33.8809ZM40.1562 41H31.25V40.1016L36.123 34.5742C36.9303 33.6432 37.4902 32.875 37.8027 32.2695C38.1152 31.6641 38.2715 31.0749 38.2715 30.502C38.2715 29.6035 38.0078 28.8939 37.4805 28.373C36.9531 27.8457 36.2272 27.582 35.3027 27.582C34.3457 27.582 33.571 27.888 32.9785 28.5C32.3926 29.112 32.0996 29.9062 32.0996 30.8828H30.9375C30.9375 30.082 31.1165 29.3529 31.4746 28.6953C31.8392 28.0378 32.3535 27.5234 33.0176 27.1523C33.6882 26.7747 34.4499 26.5859 35.3027 26.5859C36.6048 26.5859 37.6204 26.9277 38.3496 27.6113C39.0853 28.2949 39.4531 29.2259 39.4531 30.4043C39.4531 31.0684 39.2448 31.7943 38.8281 32.582C38.418 33.3698 37.6921 34.3529 36.6504 35.5312L32.6855 40.0137H40.1562V41ZM50.918 35.0723C50.918 37.0775 50.5501 38.6009 49.8145 39.6426C49.0788 40.6777 47.9948 41.1953 46.5625 41.1953C45.1562 41.1953 44.0788 40.6875 43.3301 39.6719C42.5814 38.6497 42.1973 37.1654 42.1777 35.2188V32.6699C42.1777 30.6712 42.5488 29.1576 43.291 28.1289C44.0332 27.1003 45.1172 26.5859 46.543 26.5859C47.9492 26.5859 49.0234 27.084 49.7656 28.0801C50.5078 29.0697 50.8919 30.5312 50.918 32.4648V35.0723ZM49.7461 32.5234C49.7461 30.8958 49.4792 29.6654 48.9453 28.832C48.418 27.9987 47.6172 27.582 46.543 27.582C45.4883 27.582 44.694 27.9889 44.1602 28.8027C43.6263 29.6165 43.3529 30.8177 43.3398 32.4062V35.1992C43.3398 36.8203 43.6133 38.0605 44.1602 38.9199C44.7135 39.7793 45.5143 40.209 46.5625 40.209C47.6042 40.209 48.3919 39.7891 48.9258 38.9492C49.4661 38.1094 49.7396 36.8789 49.7461 35.2578V32.5234ZM62.3438 41H53.4375V40.1016L58.3105 34.5742C59.1178 33.6432 59.6777 32.875 59.9902 32.2695C60.3027 31.6641 60.459 31.0749 60.459 30.502C60.459 29.6035 60.1953 28.8939 59.668 28.373C59.1406 27.8457 58.4147 27.582 57.4902 27.582C56.5332 27.582 55.7585 27.888 55.166 28.5C54.5801 29.112 54.2871 29.9062 54.2871 30.8828H53.125C53.125 30.082 53.304 29.3529 53.6621 28.6953C54.0267 28.0378 54.541 27.5234 55.2051 27.1523C55.8757 26.7747 56.6374 26.5859 57.4902 26.5859C58.7923 26.5859 59.8079 26.9277 60.5371 27.6113C61.2728 28.2949 61.6406 29.2259 61.6406 30.4043C61.6406 31.0684 61.4323 31.7943 61.0156 32.582C60.6055 33.3698 59.8796 34.3529 58.8379 35.5312L54.873 40.0137H62.3438V41ZM69.9707 41H68.7988V28.1875L64.9316 29.623V28.5293L69.7754 26.7324H69.9707V41ZM91.0156 36.5664C90.8529 38.0638 90.3158 39.2096 89.4043 40.0039C88.4993 40.7982 87.2917 41.1953 85.7812 41.1953C84.7266 41.1953 83.7923 40.9316 82.9785 40.4043C82.1712 39.877 81.5462 39.1315 81.1035 38.168C80.6608 37.1979 80.4362 36.0911 80.4297 34.8477V33.002C80.4297 31.7389 80.651 30.6191 81.0938 29.6426C81.5365 28.666 82.1712 27.9141 82.998 27.3867C83.8314 26.8529 84.7884 26.5859 85.8691 26.5859C87.3926 26.5859 88.5938 26.9993 89.4727 27.8262C90.3581 28.6465 90.8724 29.7826 91.0156 31.2344H89.8047C89.5052 28.819 88.1934 27.6113 85.8691 27.6113C84.5801 27.6113 83.5514 28.0931 82.7832 29.0566C82.0215 30.0202 81.6406 31.3516 81.6406 33.0508V34.7891C81.6406 36.4297 82.0117 37.7383 82.7539 38.7148C83.5026 39.6914 84.5117 40.1797 85.7812 40.1797C87.0378 40.1797 87.985 39.8802 88.623 39.2812C89.2611 38.6758 89.6549 37.7708 89.8047 36.5664H91.0156ZM93.0176 35.5605C93.0176 34.5449 93.2129 33.6302 93.6035 32.8164C94.0007 32.0026 94.5573 31.3711 95.2734 30.9219C95.9961 30.4661 96.8132 30.2383 97.7246 30.2383C99.1309 30.2383 100.27 30.7331 101.143 31.7227C102.015 32.7057 102.451 34.0111 102.451 35.6387V35.8828C102.451 36.9049 102.253 37.8262 101.855 38.6465C101.465 39.4603 100.911 40.0885 100.195 40.5312C99.4792 40.974 98.6621 41.1953 97.7441 41.1953C96.3444 41.1953 95.2051 40.7038 94.3262 39.7207C93.4538 38.7311 93.0176 37.4225 93.0176 35.7949V35.5605ZM94.1895 35.8828C94.1895 37.1458 94.515 38.1842 95.166 38.998C95.8236 39.8053 96.6829 40.209 97.7441 40.209C98.7988 40.209 99.6517 39.8053 100.303 38.998C100.96 38.1842 101.289 37.1133 101.289 35.7852V35.5605C101.289 34.7533 101.139 34.0143 100.84 33.3438C100.54 32.6732 100.12 32.1556 99.5801 31.791C99.0397 31.4199 98.4212 31.2344 97.7246 31.2344C96.6829 31.2344 95.8333 31.6445 95.1758 32.4648C94.5182 33.2786 94.1895 34.3464 94.1895 35.668V35.8828ZM105.938 30.4336L105.977 32.1523C106.367 31.5143 106.855 31.0358 107.441 30.7168C108.027 30.3978 108.678 30.2383 109.395 30.2383C111.061 30.2383 112.119 30.9219 112.568 32.2891C112.946 31.6315 113.451 31.127 114.082 30.7754C114.714 30.4173 115.41 30.2383 116.172 30.2383C118.438 30.2383 119.593 31.4753 119.639 33.9492V41H118.467V34.0371C118.46 33.0931 118.255 32.3932 117.852 31.9375C117.454 31.4818 116.803 31.2539 115.898 31.2539C115.059 31.2669 114.349 31.5404 113.77 32.0742C113.19 32.6016 112.868 33.2461 112.803 34.0078V41H111.631V33.9492C111.624 33.0443 111.41 32.3704 110.986 31.9277C110.57 31.4785 109.925 31.2539 109.053 31.2539C108.317 31.2539 107.686 31.4655 107.158 31.8887C106.631 32.3053 106.24 32.9271 105.986 33.7539V41H104.814V30.4336H105.938ZM129.404 39.6621C128.701 40.6842 127.578 41.1953 126.035 41.1953C124.909 41.1953 124.053 40.8698 123.467 40.2188C122.881 39.5612 122.581 38.5911 122.568 37.3086V30.4336H123.73V37.1621C123.73 39.1738 124.544 40.1797 126.172 40.1797C127.865 40.1797 128.936 39.4798 129.385 38.0801V30.4336H130.557V41H129.424L129.404 39.6621ZM134.717 30.4336L134.756 32.2402C135.153 31.5892 135.648 31.0944 136.24 30.7559C136.833 30.4108 137.487 30.2383 138.203 30.2383C139.336 30.2383 140.179 30.5573 140.732 31.1953C141.286 31.8333 141.566 32.7904 141.572 34.0664V41H140.41V34.0566C140.404 33.1126 140.202 32.4095 139.805 31.9473C139.414 31.485 138.786 31.2539 137.92 31.2539C137.197 31.2539 136.556 31.4818 135.996 31.9375C135.443 32.3867 135.033 32.9954 134.766 33.7637V41H133.604V30.4336H134.717ZM145.908 41H144.736V30.4336H145.908V41ZM144.531 27.377C144.531 27.1556 144.603 26.9701 144.746 26.8203C144.889 26.6641 145.085 26.5859 145.332 26.5859C145.579 26.5859 145.775 26.6641 145.918 26.8203C146.068 26.9701 146.143 27.1556 146.143 27.377C146.143 27.5983 146.068 27.7839 145.918 27.9336C145.775 28.0833 145.579 28.1582 145.332 28.1582C145.085 28.1582 144.889 28.0833 144.746 27.9336C144.603 27.7839 144.531 27.5983 144.531 27.377ZM148.623 35.6191C148.623 33.9785 148.988 32.6732 149.717 31.7031C150.452 30.7266 151.449 30.2383 152.705 30.2383C154.131 30.2383 155.218 30.8014 155.967 31.9277V26H157.129V41H156.035L155.986 39.5938C155.238 40.6615 154.137 41.1953 152.686 41.1953C151.468 41.1953 150.485 40.707 149.736 39.7305C148.994 38.7474 148.623 37.4225 148.623 35.7559V35.6191ZM149.805 35.8242C149.805 37.1719 150.075 38.2363 150.615 39.0176C151.156 39.7923 151.917 40.1797 152.9 40.1797C154.339 40.1797 155.361 39.5449 155.967 38.2754V33.3145C155.361 31.9408 154.346 31.2539 152.92 31.2539C151.937 31.2539 151.172 31.6413 150.625 32.416C150.078 33.1842 149.805 34.3203 149.805 35.8242ZM166.875 41C166.758 40.668 166.683 40.1764 166.65 39.5254C166.24 40.0592 165.716 40.4727 165.078 40.7656C164.447 41.0521 163.776 41.1953 163.066 41.1953C162.051 41.1953 161.227 40.9121 160.596 40.3457C159.971 39.7793 159.658 39.0632 159.658 38.1973C159.658 37.1686 160.085 36.3548 160.938 35.7559C161.797 35.1569 162.992 34.8574 164.521 34.8574H166.641V33.6562C166.641 32.901 166.406 32.3086 165.938 31.8789C165.475 31.4427 164.798 31.2246 163.906 31.2246C163.092 31.2246 162.419 31.4329 161.885 31.8496C161.351 32.2663 161.084 32.7676 161.084 33.3535L159.912 33.3438C159.912 32.5039 160.303 31.778 161.084 31.166C161.865 30.5475 162.826 30.2383 163.965 30.2383C165.143 30.2383 166.071 30.5345 166.748 31.127C167.432 31.7129 167.783 32.5332 167.803 33.5879V38.5879C167.803 39.61 167.91 40.375 168.125 40.8828V41H166.875ZM163.203 40.1602C163.984 40.1602 164.681 39.9714 165.293 39.5938C165.911 39.2161 166.361 38.7116 166.641 38.0801V35.7559H164.551C163.385 35.7689 162.474 35.9837 161.816 36.4004C161.159 36.8105 160.83 37.377 160.83 38.0996C160.83 38.6921 161.048 39.1836 161.484 39.5742C161.927 39.9648 162.5 40.1602 163.203 40.1602ZM170.459 35.6191C170.459 33.9785 170.824 32.6732 171.553 31.7031C172.288 30.7266 173.285 30.2383 174.541 30.2383C175.967 30.2383 177.054 30.8014 177.803 31.9277V26H178.965V41H177.871L177.822 39.5938C177.074 40.6615 175.973 41.1953 174.521 41.1953C173.304 41.1953 172.321 40.707 171.572 39.7305C170.83 38.7474 170.459 37.4225 170.459 35.7559V35.6191ZM171.641 35.8242C171.641 37.1719 171.911 38.2363 172.451 39.0176C172.992 39.7923 173.753 40.1797 174.736 40.1797C176.175 40.1797 177.197 39.5449 177.803 38.2754V33.3145C177.197 31.9408 176.182 31.2539 174.756 31.2539C173.773 31.2539 173.008 31.6413 172.461 32.416C171.914 33.1842 171.641 34.3203 171.641 35.8242ZM186.436 35.6191C186.436 33.9785 186.8 32.6732 187.529 31.7031C188.265 30.7266 189.261 30.2383 190.518 30.2383C191.943 30.2383 193.031 30.8014 193.779 31.9277V26H194.941V41H193.848L193.799 39.5938C193.05 40.6615 191.95 41.1953 190.498 41.1953C189.281 41.1953 188.298 40.707 187.549 39.7305C186.807 38.7474 186.436 37.4225 186.436 35.7559V35.6191ZM187.617 35.8242C187.617 37.1719 187.887 38.2363 188.428 39.0176C188.968 39.7923 189.73 40.1797 190.713 40.1797C192.152 40.1797 193.174 39.5449 193.779 38.2754V33.3145C193.174 31.9408 192.158 31.2539 190.732 31.2539C189.749 31.2539 188.984 31.6413 188.438 32.416C187.891 33.1842 187.617 34.3203 187.617 35.8242ZM202.109 41.1953C201.211 41.1953 200.397 40.974 199.668 40.5312C198.945 40.0885 198.382 39.4733 197.979 38.6855C197.575 37.8913 197.373 37.0026 197.373 36.0195V35.5996C197.373 34.584 197.568 33.6693 197.959 32.8555C198.356 32.0417 198.906 31.4036 199.609 30.9414C200.312 30.4727 201.074 30.2383 201.895 30.2383C203.177 30.2383 204.193 30.6777 204.941 31.5566C205.697 32.429 206.074 33.6237 206.074 35.1406V35.7949H198.535V36.0195C198.535 37.2174 198.877 38.2168 199.561 39.0176C200.251 39.8118 201.117 40.209 202.158 40.209C202.783 40.209 203.333 40.0951 203.809 39.8672C204.29 39.6393 204.727 39.2747 205.117 38.7734L205.85 39.3301C204.99 40.5736 203.743 41.1953 202.109 41.1953ZM201.895 31.2344C201.016 31.2344 200.273 31.5566 199.668 32.2012C199.069 32.8457 198.704 33.7116 198.574 34.7988H204.912V34.6719C204.88 33.6562 204.59 32.8294 204.043 32.1914C203.496 31.5534 202.78 31.2344 201.895 31.2344ZM213.486 41V26.7812H217.461C218.626 26.7812 219.671 27.0482 220.596 27.582C221.52 28.1094 222.24 28.8678 222.754 29.8574C223.275 30.847 223.535 31.9733 223.535 33.2363V34.5449C223.535 35.8145 223.278 36.9408 222.764 37.9238C222.249 38.9069 221.523 39.6654 220.586 40.1992C219.655 40.7331 218.584 41 217.373 41H213.486ZM214.688 27.8066V39.9844H217.383C218.88 39.9844 220.081 39.4896 220.986 38.5C221.891 37.5039 222.344 36.1595 222.344 34.4668V33.2168C222.344 31.5827 221.898 30.2741 221.006 29.291C220.114 28.3079 218.939 27.8132 217.48 27.8066H214.688ZM225.674 35.5605C225.674 34.5449 225.869 33.6302 226.26 32.8164C226.657 32.0026 227.214 31.3711 227.93 30.9219C228.652 30.4661 229.469 30.2383 230.381 30.2383C231.787 30.2383 232.926 30.7331 233.799 31.7227C234.671 32.7057 235.107 34.0111 235.107 35.6387V35.8828C235.107 36.9049 234.909 37.8262 234.512 38.6465C234.121 39.4603 233.568 40.0885 232.852 40.5312C232.135 40.974 231.318 41.1953 230.4 41.1953C229.001 41.1953 227.861 40.7038 226.982 39.7207C226.11 38.7311 225.674 37.4225 225.674 35.7949V35.5605ZM226.846 35.8828C226.846 37.1458 227.171 38.1842 227.822 38.998C228.48 39.8053 229.339 40.209 230.4 40.209C231.455 40.209 232.308 39.8053 232.959 38.998C233.617 38.1842 233.945 37.1133 233.945 35.7852V35.5605C233.945 34.7533 233.796 34.0143 233.496 33.3438C233.197 32.6732 232.777 32.1556 232.236 31.791C231.696 31.4199 231.077 31.2344 230.381 31.2344C229.339 31.2344 228.49 31.6445 227.832 32.4648C227.174 33.2786 226.846 34.3464 226.846 35.668V35.8828ZM238.643 30.4336L238.682 32.2402C239.079 31.5892 239.574 31.0944 240.166 30.7559C240.758 30.4108 241.413 30.2383 242.129 30.2383C243.262 30.2383 244.105 30.5573 244.658 31.1953C245.212 31.8333 245.492 32.7904 245.498 34.0664V41H244.336V34.0566C244.329 33.1126 244.128 32.4095 243.73 31.9473C243.34 31.485 242.712 31.2539 241.846 31.2539C241.123 31.2539 240.482 31.4818 239.922 31.9375C239.368 32.3867 238.958 32.9954 238.691 33.7637V41H237.529V30.4336H238.643ZM255.195 41C255.078 40.668 255.003 40.1764 254.971 39.5254C254.561 40.0592 254.036 40.4727 253.398 40.7656C252.767 41.0521 252.096 41.1953 251.387 41.1953C250.371 41.1953 249.548 40.9121 248.916 40.3457C248.291 39.7793 247.979 39.0632 247.979 38.1973C247.979 37.1686 248.405 36.3548 249.258 35.7559C250.117 35.1569 251.312 34.8574 252.842 34.8574H254.961V33.6562C254.961 32.901 254.727 32.3086 254.258 31.8789C253.796 31.4427 253.118 31.2246 252.227 31.2246C251.413 31.2246 250.739 31.4329 250.205 31.8496C249.671 32.2663 249.404 32.7676 249.404 33.3535L248.232 33.3438C248.232 32.5039 248.623 31.778 249.404 31.166C250.186 30.5475 251.146 30.2383 252.285 30.2383C253.464 30.2383 254.391 30.5345 255.068 31.127C255.752 31.7129 256.104 32.5332 256.123 33.5879V38.5879C256.123 39.61 256.23 40.375 256.445 40.8828V41H255.195ZM251.523 40.1602C252.305 40.1602 253.001 39.9714 253.613 39.5938C254.232 39.2161 254.681 38.7116 254.961 38.0801V35.7559H252.871C251.706 35.7689 250.794 35.9837 250.137 36.4004C249.479 36.8105 249.15 37.377 249.15 38.0996C249.15 38.6921 249.368 39.1836 249.805 39.5742C250.247 39.9648 250.82 40.1602 251.523 40.1602ZM258.779 35.6191C258.779 33.9785 259.144 32.6732 259.873 31.7031C260.609 30.7266 261.605 30.2383 262.861 30.2383C264.287 30.2383 265.374 30.8014 266.123 31.9277V26H267.285V41H266.191L266.143 39.5938C265.394 40.6615 264.294 41.1953 262.842 41.1953C261.624 41.1953 260.641 40.707 259.893 39.7305C259.15 38.7474 258.779 37.4225 258.779 35.7559V35.6191ZM259.961 35.8242C259.961 37.1719 260.231 38.2363 260.771 39.0176C261.312 39.7923 262.074 40.1797 263.057 40.1797C264.495 40.1797 265.518 39.5449 266.123 38.2754V33.3145C265.518 31.9408 264.502 31.2539 263.076 31.2539C262.093 31.2539 261.328 31.6413 260.781 32.416C260.234 33.1842 259.961 34.3203 259.961 35.8242ZM269.717 35.5605C269.717 34.5449 269.912 33.6302 270.303 32.8164C270.7 32.0026 271.257 31.3711 271.973 30.9219C272.695 30.4661 273.512 30.2383 274.424 30.2383C275.83 30.2383 276.969 30.7331 277.842 31.7227C278.714 32.7057 279.15 34.0111 279.15 35.6387V35.8828C279.15 36.9049 278.952 37.8262 278.555 38.6465C278.164 39.4603 277.611 40.0885 276.895 40.5312C276.178 40.974 275.361 41.1953 274.443 41.1953C273.044 41.1953 271.904 40.7038 271.025 39.7207C270.153 38.7311 269.717 37.4225 269.717 35.7949V35.5605ZM270.889 35.8828C270.889 37.1458 271.214 38.1842 271.865 38.998C272.523 39.8053 273.382 40.209 274.443 40.209C275.498 40.209 276.351 39.8053 277.002 38.998C277.66 38.1842 277.988 37.1133 277.988 35.7852V35.5605C277.988 34.7533 277.839 34.0143 277.539 33.3438C277.24 32.6732 276.82 32.1556 276.279 31.791C275.739 31.4199 275.12 31.2344 274.424 31.2344C273.382 31.2344 272.533 31.6445 271.875 32.4648C271.217 33.2786 270.889 34.3464 270.889 35.668V35.8828ZM286.455 31.4297C286.208 31.3841 285.944 31.3613 285.664 31.3613C284.935 31.3613 284.316 31.5664 283.809 31.9766C283.307 32.3802 282.949 32.9694 282.734 33.7441V41H281.572V30.4336H282.715L282.734 32.1133C283.353 30.8633 284.346 30.2383 285.713 30.2383C286.038 30.2383 286.296 30.2806 286.484 30.3652L286.455 31.4297ZM292.207 41.1953C291.309 41.1953 290.495 40.974 289.766 40.5312C289.043 40.0885 288.48 39.4733 288.076 38.6855C287.673 37.8913 287.471 37.0026 287.471 36.0195V35.5996C287.471 34.584 287.666 33.6693 288.057 32.8555C288.454 32.0417 289.004 31.4036 289.707 30.9414C290.41 30.4727 291.172 30.2383 291.992 30.2383C293.275 30.2383 294.29 30.6777 295.039 31.5566C295.794 32.429 296.172 33.6237 296.172 35.1406V35.7949H288.633V36.0195C288.633 37.2174 288.975 38.2168 289.658 39.0176C290.348 39.8118 291.214 40.209 292.256 40.209C292.881 40.209 293.431 40.0951 293.906 39.8672C294.388 39.6393 294.824 39.2747 295.215 38.7734L295.947 39.3301C295.088 40.5736 293.841 41.1953 292.207 41.1953ZM291.992 31.2344C291.113 31.2344 290.371 31.5566 289.766 32.2012C289.167 32.8457 288.802 33.7116 288.672 34.7988H295.01V34.6719C294.977 33.6562 294.688 32.8294 294.141 32.1914C293.594 31.5534 292.878 31.2344 291.992 31.2344ZM304.775 38.3145C304.775 37.735 304.541 37.2695 304.072 36.918C303.61 36.5664 302.91 36.293 301.973 36.0977C301.035 35.8958 300.306 35.668 299.785 35.4141C299.271 35.1536 298.887 34.8379 298.633 34.4668C298.385 34.0957 298.262 33.6465 298.262 33.1191C298.262 32.2858 298.61 31.599 299.307 31.0586C300.003 30.5117 300.895 30.2383 301.982 30.2383C303.161 30.2383 304.105 30.5312 304.814 31.1172C305.531 31.6966 305.889 32.4551 305.889 33.3926H304.717C304.717 32.7741 304.456 32.2598 303.936 31.8496C303.421 31.4395 302.77 31.2344 301.982 31.2344C301.214 31.2344 300.596 31.4069 300.127 31.752C299.665 32.0905 299.434 32.5332 299.434 33.0801C299.434 33.6074 299.626 34.0176 300.01 34.3105C300.4 34.597 301.107 34.8607 302.129 35.1016C303.158 35.3424 303.926 35.5996 304.434 35.873C304.948 36.1465 305.329 36.4753 305.576 36.8594C305.824 37.2435 305.947 37.709 305.947 38.2559C305.947 39.1478 305.586 39.8607 304.863 40.3945C304.147 40.9284 303.21 41.1953 302.051 41.1953C300.82 41.1953 299.821 40.8991 299.053 40.3066C298.291 39.7077 297.91 38.9525 297.91 38.041H299.082C299.128 38.7246 299.414 39.2585 299.941 39.6426C300.475 40.0202 301.178 40.209 302.051 40.209C302.865 40.209 303.522 40.0299 304.023 39.6719C304.525 39.3138 304.775 38.8613 304.775 38.3145ZM308.34 43.6562L307.646 43.1484C308.239 42.3542 308.545 41.5306 308.564 40.6777V39.1641H309.707V40.3848C309.707 41.7389 309.251 42.8294 308.34 43.6562ZM325.225 37.0156H318.77L317.305 41H316.045L321.426 26.7812H322.568L327.949 41H326.699L325.225 37.0156ZM319.141 35.9902H324.844L321.992 28.2461L319.141 35.9902ZM336.104 38.3145C336.104 37.735 335.869 37.2695 335.4 36.918C334.938 36.5664 334.238 36.293 333.301 36.0977C332.363 35.8958 331.634 35.668 331.113 35.4141C330.599 35.1536 330.215 34.8379 329.961 34.4668C329.714 34.0957 329.59 33.6465 329.59 33.1191C329.59 32.2858 329.938 31.599 330.635 31.0586C331.331 30.5117 332.223 30.2383 333.311 30.2383C334.489 30.2383 335.433 30.5312 336.143 31.1172C336.859 31.6966 337.217 32.4551 337.217 33.3926H336.045C336.045 32.7741 335.785 32.2598 335.264 31.8496C334.749 31.4395 334.098 31.2344 333.311 31.2344C332.542 31.2344 331.924 31.4069 331.455 31.752C330.993 32.0905 330.762 32.5332 330.762 33.0801C330.762 33.6074 330.954 34.0176 331.338 34.3105C331.729 34.597 332.435 34.8607 333.457 35.1016C334.486 35.3424 335.254 35.5996 335.762 35.873C336.276 36.1465 336.657 36.4753 336.904 36.8594C337.152 37.2435 337.275 37.709 337.275 38.2559C337.275 39.1478 336.914 39.8607 336.191 40.3945C335.475 40.9284 334.538 41.1953 333.379 41.1953C332.148 41.1953 331.149 40.8991 330.381 40.3066C329.619 39.7077 329.238 38.9525 329.238 38.041H330.41C330.456 38.7246 330.742 39.2585 331.27 39.6426C331.803 40.0202 332.507 40.209 333.379 40.209C334.193 40.209 334.85 40.0299 335.352 39.6719C335.853 39.3138 336.104 38.8613 336.104 38.3145ZM339.268 35.5605C339.268 34.5449 339.463 33.6302 339.854 32.8164C340.251 32.0026 340.807 31.3711 341.523 30.9219C342.246 30.4661 343.063 30.2383 343.975 30.2383C345.381 30.2383 346.52 30.7331 347.393 31.7227C348.265 32.7057 348.701 34.0111 348.701 35.6387V35.8828C348.701 36.9049 348.503 37.8262 348.105 38.6465C347.715 39.4603 347.161 40.0885 346.445 40.5312C345.729 40.974 344.912 41.1953 343.994 41.1953C342.594 41.1953 341.455 40.7038 340.576 39.7207C339.704 38.7311 339.268 37.4225 339.268 35.7949V35.5605ZM340.439 35.8828C340.439 37.1458 340.765 38.1842 341.416 38.998C342.074 39.8053 342.933 40.209 343.994 40.209C345.049 40.209 345.902 39.8053 346.553 38.998C347.21 38.1842 347.539 37.1133 347.539 35.7852V35.5605C347.539 34.7533 347.389 34.0143 347.09 33.3438C346.79 32.6732 346.37 32.1556 345.83 31.791C345.29 31.4199 344.671 31.2344 343.975 31.2344C342.933 31.2344 342.083 31.6445 341.426 32.4648C340.768 33.2786 340.439 34.3464 340.439 35.668V35.8828ZM355.029 40.209C355.843 40.209 356.523 39.9811 357.07 39.5254C357.624 39.0632 357.923 38.4674 357.969 37.7383H359.092C359.059 38.3828 358.857 38.972 358.486 39.5059C358.115 40.0332 357.62 40.4466 357.002 40.7461C356.39 41.0456 355.732 41.1953 355.029 41.1953C353.643 41.1953 352.542 40.7135 351.729 39.75C350.921 38.7865 350.518 37.4909 350.518 35.8633V35.5117C350.518 34.4701 350.7 33.5488 351.064 32.748C351.429 31.9473 351.95 31.3288 352.627 30.8926C353.311 30.4564 354.108 30.2383 355.02 30.2383C356.178 30.2383 357.132 30.5833 357.881 31.2734C358.636 31.9635 359.04 32.8717 359.092 33.998H357.969C357.917 33.1712 357.617 32.5039 357.07 31.9961C356.53 31.4883 355.846 31.2344 355.02 31.2344C353.965 31.2344 353.145 31.6152 352.559 32.377C351.979 33.1387 351.689 34.2064 351.689 35.5801V35.9219C351.689 37.2695 351.979 38.321 352.559 39.0762C353.145 39.8314 353.968 40.209 355.029 40.209ZM362.744 41H361.572V30.4336H362.744V41ZM361.367 27.377C361.367 27.1556 361.439 26.9701 361.582 26.8203C361.725 26.6641 361.921 26.5859 362.168 26.5859C362.415 26.5859 362.611 26.6641 362.754 26.8203C362.904 26.9701 362.979 27.1556 362.979 27.377C362.979 27.5983 362.904 27.7839 362.754 27.9336C362.611 28.0833 362.415 28.1582 362.168 28.1582C361.921 28.1582 361.725 28.0833 361.582 27.9336C361.439 27.7839 361.367 27.5983 361.367 27.377ZM372.598 41C372.48 40.668 372.406 40.1764 372.373 39.5254C371.963 40.0592 371.439 40.4727 370.801 40.7656C370.169 41.0521 369.499 41.1953 368.789 41.1953C367.773 41.1953 366.95 40.9121 366.318 40.3457C365.693 39.7793 365.381 39.0632 365.381 38.1973C365.381 37.1686 365.807 36.3548 366.66 35.7559C367.52 35.1569 368.714 34.8574 370.244 34.8574H372.363V33.6562C372.363 32.901 372.129 32.3086 371.66 31.8789C371.198 31.4427 370.521 31.2246 369.629 31.2246C368.815 31.2246 368.141 31.4329 367.607 31.8496C367.074 32.2663 366.807 32.7676 366.807 33.3535L365.635 33.3438C365.635 32.5039 366.025 31.778 366.807 31.166C367.588 30.5475 368.548 30.2383 369.688 30.2383C370.866 30.2383 371.794 30.5345 372.471 31.127C373.154 31.7129 373.506 32.5332 373.525 33.5879V38.5879C373.525 39.61 373.633 40.375 373.848 40.8828V41H372.598ZM368.926 40.1602C369.707 40.1602 370.404 39.9714 371.016 39.5938C371.634 39.2161 372.083 38.7116 372.363 38.0801V35.7559H370.273C369.108 35.7689 368.197 35.9837 367.539 36.4004C366.882 36.8105 366.553 37.377 366.553 38.0996C366.553 38.6921 366.771 39.1836 367.207 39.5742C367.65 39.9648 368.223 40.1602 368.926 40.1602ZM380.557 40.209C381.37 40.209 382.051 39.9811 382.598 39.5254C383.151 39.0632 383.451 38.4674 383.496 37.7383H384.619C384.587 38.3828 384.385 38.972 384.014 39.5059C383.643 40.0332 383.148 40.4466 382.529 40.7461C381.917 41.0456 381.26 41.1953 380.557 41.1953C379.17 41.1953 378.07 40.7135 377.256 39.75C376.449 38.7865 376.045 37.4909 376.045 35.8633V35.5117C376.045 34.4701 376.227 33.5488 376.592 32.748C376.956 31.9473 377.477 31.3288 378.154 30.8926C378.838 30.4564 379.635 30.2383 380.547 30.2383C381.706 30.2383 382.66 30.5833 383.408 31.2734C384.163 31.9635 384.567 32.8717 384.619 33.998H383.496C383.444 33.1712 383.145 32.5039 382.598 31.9961C382.057 31.4883 381.374 31.2344 380.547 31.2344C379.492 31.2344 378.672 31.6152 378.086 32.377C377.507 33.1387 377.217 34.2064 377.217 35.5801V35.9219C377.217 37.2695 377.507 38.321 378.086 39.0762C378.672 39.8314 379.495 40.209 380.557 40.209ZM388.271 41H387.1V30.4336H388.271V41ZM386.895 27.377C386.895 27.1556 386.966 26.9701 387.109 26.8203C387.253 26.6641 387.448 26.5859 387.695 26.5859C387.943 26.5859 388.138 26.6641 388.281 26.8203C388.431 26.9701 388.506 27.1556 388.506 27.377C388.506 27.5983 388.431 27.7839 388.281 27.9336C388.138 28.0833 387.943 28.1582 387.695 28.1582C387.448 28.1582 387.253 28.0833 387.109 27.9336C386.966 27.7839 386.895 27.5983 386.895 27.377ZM390.811 35.5605C390.811 34.5449 391.006 33.6302 391.396 32.8164C391.794 32.0026 392.35 31.3711 393.066 30.9219C393.789 30.4661 394.606 30.2383 395.518 30.2383C396.924 30.2383 398.063 30.7331 398.936 31.7227C399.808 32.7057 400.244 34.0111 400.244 35.6387V35.8828C400.244 36.9049 400.046 37.8262 399.648 38.6465C399.258 39.4603 398.704 40.0885 397.988 40.5312C397.272 40.974 396.455 41.1953 395.537 41.1953C394.137 41.1953 392.998 40.7038 392.119 39.7207C391.247 38.7311 390.811 37.4225 390.811 35.7949V35.5605ZM391.982 35.8828C391.982 37.1458 392.308 38.1842 392.959 38.998C393.617 39.8053 394.476 40.209 395.537 40.209C396.592 40.209 397.445 39.8053 398.096 38.998C398.753 38.1842 399.082 37.1133 399.082 35.7852V35.5605C399.082 34.7533 398.932 34.0143 398.633 33.3438C398.333 32.6732 397.913 32.1556 397.373 31.791C396.833 31.4199 396.214 31.2344 395.518 31.2344C394.476 31.2344 393.626 31.6445 392.969 32.4648C392.311 33.2786 391.982 34.3464 391.982 35.668V35.8828ZM403.779 30.4336L403.818 32.2402C404.215 31.5892 404.71 31.0944 405.303 30.7559C405.895 30.4108 406.549 30.2383 407.266 30.2383C408.398 30.2383 409.242 30.5573 409.795 31.1953C410.348 31.8333 410.628 32.7904 410.635 34.0664V41H409.473V34.0566C409.466 33.1126 409.264 32.4095 408.867 31.9473C408.477 31.485 407.848 31.2539 406.982 31.2539C406.26 31.2539 405.618 31.4818 405.059 31.9375C404.505 32.3867 404.095 32.9954 403.828 33.7637V41H402.666V30.4336H403.779ZM417.754 41.1953C416.855 41.1953 416.042 40.974 415.312 40.5312C414.59 40.0885 414.027 39.4733 413.623 38.6855C413.219 37.8913 413.018 37.0026 413.018 36.0195V35.5996C413.018 34.584 413.213 33.6693 413.604 32.8555C414.001 32.0417 414.551 31.4036 415.254 30.9414C415.957 30.4727 416.719 30.2383 417.539 30.2383C418.822 30.2383 419.837 30.6777 420.586 31.5566C421.341 32.429 421.719 33.6237 421.719 35.1406V35.7949H414.18V36.0195C414.18 37.2174 414.521 38.2168 415.205 39.0176C415.895 39.8118 416.761 40.209 417.803 40.209C418.428 40.209 418.978 40.0951 419.453 39.8672C419.935 39.6393 420.371 39.2747 420.762 38.7734L421.494 39.3301C420.635 40.5736 419.388 41.1953 417.754 41.1953ZM417.539 31.2344C416.66 31.2344 415.918 31.5566 415.312 32.2012C414.714 32.8457 414.349 33.7116 414.219 34.7988H420.557V34.6719C420.524 33.6562 420.234 32.8294 419.688 32.1914C419.141 31.5534 418.424 31.2344 417.539 31.2344ZM430.322 38.3145C430.322 37.735 430.088 37.2695 429.619 36.918C429.157 36.5664 428.457 36.293 427.52 36.0977C426.582 35.8958 425.853 35.668 425.332 35.4141C424.818 35.1536 424.434 34.8379 424.18 34.4668C423.932 34.0957 423.809 33.6465 423.809 33.1191C423.809 32.2858 424.157 31.599 424.854 31.0586C425.55 30.5117 426.442 30.2383 427.529 30.2383C428.708 30.2383 429.652 30.5312 430.361 31.1172C431.077 31.6966 431.436 32.4551 431.436 33.3926H430.264C430.264 32.7741 430.003 32.2598 429.482 31.8496C428.968 31.4395 428.317 31.2344 427.529 31.2344C426.761 31.2344 426.143 31.4069 425.674 31.752C425.212 32.0905 424.98 32.5332 424.98 33.0801C424.98 33.6074 425.173 34.0176 425.557 34.3105C425.947 34.597 426.654 34.8607 427.676 35.1016C428.704 35.3424 429.473 35.5996 429.98 35.873C430.495 36.1465 430.876 36.4753 431.123 36.8594C431.37 37.2435 431.494 37.709 431.494 38.2559C431.494 39.1478 431.133 39.8607 430.41 40.3945C429.694 40.9284 428.757 41.1953 427.598 41.1953C426.367 41.1953 425.368 40.8991 424.6 40.3066C423.838 39.7077 423.457 38.9525 423.457 38.041H424.629C424.674 38.7246 424.961 39.2585 425.488 39.6426C426.022 40.0202 426.725 40.209 427.598 40.209C428.411 40.209 429.069 40.0299 429.57 39.6719C430.072 39.3138 430.322 38.8613 430.322 38.3145ZM442.344 39.3203L445.43 30.4336H446.689L442.178 42.7969L441.943 43.3438C441.364 44.6263 440.469 45.2676 439.258 45.2676C438.978 45.2676 438.678 45.222 438.359 45.1309L438.35 44.1641L438.955 44.2227C439.528 44.2227 439.99 44.0794 440.342 43.793C440.7 43.513 441.003 43.028 441.25 42.3379L441.768 40.9121L437.783 30.4336H439.062L442.344 39.3203ZM457.93 39.2422L458.008 39.5449L458.096 39.2422L462.568 26.7812H463.887L458.594 41H457.441L452.148 26.7812H453.457L457.93 39.2422ZM464.619 35.5605C464.619 34.5449 464.814 33.6302 465.205 32.8164C465.602 32.0026 466.159 31.3711 466.875 30.9219C467.598 30.4661 468.415 30.2383 469.326 30.2383C470.732 30.2383 471.872 30.7331 472.744 31.7227C473.617 32.7057 474.053 34.0111 474.053 35.6387V35.8828C474.053 36.9049 473.854 37.8262 473.457 38.6465C473.066 39.4603 472.513 40.0885 471.797 40.5312C471.081 40.974 470.264 41.1953 469.346 41.1953C467.946 41.1953 466.807 40.7038 465.928 39.7207C465.055 38.7311 464.619 37.4225 464.619 35.7949V35.5605ZM465.791 35.8828C465.791 37.1458 466.117 38.1842 466.768 38.998C467.425 39.8053 468.285 40.209 469.346 40.209C470.4 40.209 471.253 39.8053 471.904 38.998C472.562 38.1842 472.891 37.1133 472.891 35.7852V35.5605C472.891 34.7533 472.741 34.0143 472.441 33.3438C472.142 32.6732 471.722 32.1556 471.182 31.791C470.641 31.4199 470.023 31.2344 469.326 31.2344C468.285 31.2344 467.435 31.6445 466.777 32.4648C466.12 33.2786 465.791 34.3464 465.791 35.668V35.8828ZM477.783 41H476.611V26H477.783V41ZM487.764 39.6621C487.061 40.6842 485.938 41.1953 484.395 41.1953C483.268 41.1953 482.412 40.8698 481.826 40.2188C481.24 39.5612 480.941 38.5911 480.928 37.3086V30.4336H482.09V37.1621C482.09 39.1738 482.904 40.1797 484.531 40.1797C486.224 40.1797 487.295 39.4798 487.744 38.0801V30.4336H488.916V41H487.783L487.764 39.6621ZM493.076 30.4336L493.115 32.2402C493.512 31.5892 494.007 31.0944 494.6 30.7559C495.192 30.4108 495.846 30.2383 496.562 30.2383C497.695 30.2383 498.538 30.5573 499.092 31.1953C499.645 31.8333 499.925 32.7904 499.932 34.0664V41H498.77V34.0566C498.763 33.1126 498.561 32.4095 498.164 31.9473C497.773 31.485 497.145 31.2539 496.279 31.2539C495.557 31.2539 494.915 31.4818 494.355 31.9375C493.802 32.3867 493.392 32.9954 493.125 33.7637V41H491.963V30.4336H493.076ZM504.775 27.7285V30.4336H506.963V31.3906H504.775V38.4316C504.775 39.0176 504.88 39.4538 505.088 39.7402C505.303 40.0267 505.658 40.1699 506.152 40.1699C506.348 40.1699 506.663 40.1374 507.1 40.0723L507.148 41.0293C506.842 41.14 506.426 41.1953 505.898 41.1953C505.098 41.1953 504.515 40.9642 504.15 40.502C503.786 40.0332 503.604 39.3464 503.604 38.4414V31.3906H501.66V30.4336H503.604V27.7285H504.775ZM516.055 41C515.938 40.668 515.863 40.1764 515.83 39.5254C515.42 40.0592 514.896 40.4727 514.258 40.7656C513.626 41.0521 512.956 41.1953 512.246 41.1953C511.23 41.1953 510.407 40.9121 509.775 40.3457C509.15 39.7793 508.838 39.0632 508.838 38.1973C508.838 37.1686 509.264 36.3548 510.117 35.7559C510.977 35.1569 512.171 34.8574 513.701 34.8574H515.82V33.6562C515.82 32.901 515.586 32.3086 515.117 31.8789C514.655 31.4427 513.978 31.2246 513.086 31.2246C512.272 31.2246 511.598 31.4329 511.064 31.8496C510.531 32.2663 510.264 32.7676 510.264 33.3535L509.092 33.3438C509.092 32.5039 509.482 31.778 510.264 31.166C511.045 30.5475 512.005 30.2383 513.145 30.2383C514.323 30.2383 515.251 30.5345 515.928 31.127C516.611 31.7129 516.963 32.5332 516.982 33.5879V38.5879C516.982 39.61 517.09 40.375 517.305 40.8828V41H516.055ZM512.383 40.1602C513.164 40.1602 513.861 39.9714 514.473 39.5938C515.091 39.2161 515.54 38.7116 515.82 38.0801V35.7559H513.73C512.565 35.7689 511.654 35.9837 510.996 36.4004C510.339 36.8105 510.01 37.377 510.01 38.0996C510.01 38.6921 510.228 39.1836 510.664 39.5742C511.107 39.9648 511.68 40.1602 512.383 40.1602ZM524.99 31.4297C524.743 31.3841 524.479 31.3613 524.199 31.3613C523.47 31.3613 522.852 31.5664 522.344 31.9766C521.842 32.3802 521.484 32.9694 521.27 33.7441V41H520.107V30.4336H521.25L521.27 32.1133C521.888 30.8633 522.881 30.2383 524.248 30.2383C524.574 30.2383 524.831 30.2806 525.02 30.3652L524.99 31.4297ZM528.154 41H526.982V30.4336H528.154V41ZM526.777 27.377C526.777 27.1556 526.849 26.9701 526.992 26.8203C527.135 26.6641 527.331 26.5859 527.578 26.5859C527.826 26.5859 528.021 26.6641 528.164 26.8203C528.314 26.9701 528.389 27.1556 528.389 27.377C528.389 27.5983 528.314 27.7839 528.164 27.9336C528.021 28.0833 527.826 28.1582 527.578 28.1582C527.331 28.1582 527.135 28.0833 526.992 27.9336C526.849 27.7839 526.777 27.5983 526.777 27.377ZM530.693 35.5605C530.693 34.5449 530.889 33.6302 531.279 32.8164C531.676 32.0026 532.233 31.3711 532.949 30.9219C533.672 30.4661 534.489 30.2383 535.4 30.2383C536.807 30.2383 537.946 30.7331 538.818 31.7227C539.691 32.7057 540.127 34.0111 540.127 35.6387V35.8828C540.127 36.9049 539.928 37.8262 539.531 38.6465C539.141 39.4603 538.587 40.0885 537.871 40.5312C537.155 40.974 536.338 41.1953 535.42 41.1953C534.02 41.1953 532.881 40.7038 532.002 39.7207C531.13 38.7311 530.693 37.4225 530.693 35.7949V35.5605ZM531.865 35.8828C531.865 37.1458 532.191 38.1842 532.842 38.998C533.499 39.8053 534.359 40.209 535.42 40.209C536.475 40.209 537.327 39.8053 537.979 38.998C538.636 38.1842 538.965 37.1133 538.965 35.7852V35.5605C538.965 34.7533 538.815 34.0143 538.516 33.3438C538.216 32.6732 537.796 32.1556 537.256 31.791C536.715 31.4199 536.097 31.2344 535.4 31.2344C534.359 31.2344 533.509 31.6445 532.852 32.4648C532.194 33.2786 531.865 34.3464 531.865 35.668V35.8828ZM548.877 38.3145C548.877 37.735 548.643 37.2695 548.174 36.918C547.712 36.5664 547.012 36.293 546.074 36.0977C545.137 35.8958 544.408 35.668 543.887 35.4141C543.372 35.1536 542.988 34.8379 542.734 34.4668C542.487 34.0957 542.363 33.6465 542.363 33.1191C542.363 32.2858 542.712 31.599 543.408 31.0586C544.105 30.5117 544.997 30.2383 546.084 30.2383C547.262 30.2383 548.206 30.5312 548.916 31.1172C549.632 31.6966 549.99 32.4551 549.99 33.3926H548.818C548.818 32.7741 548.558 32.2598 548.037 31.8496C547.523 31.4395 546.872 31.2344 546.084 31.2344C545.316 31.2344 544.697 31.4069 544.229 31.752C543.766 32.0905 543.535 32.5332 543.535 33.0801C543.535 33.6074 543.727 34.0176 544.111 34.3105C544.502 34.597 545.208 34.8607 546.23 35.1016C547.259 35.3424 548.027 35.5996 548.535 35.873C549.049 36.1465 549.43 36.4753 549.678 36.8594C549.925 37.2435 550.049 37.709 550.049 38.2559C550.049 39.1478 549.688 39.8607 548.965 40.3945C548.249 40.9284 547.311 41.1953 546.152 41.1953C544.922 41.1953 543.923 40.8991 543.154 40.3066C542.393 39.7077 542.012 38.9525 542.012 38.041H543.184C543.229 38.7246 543.516 39.2585 544.043 39.6426C544.577 40.0202 545.28 40.209 546.152 40.209C546.966 40.209 547.624 40.0299 548.125 39.6719C548.626 39.3138 548.877 38.8613 548.877 38.3145ZM552.578 40.2969C552.578 40.069 552.65 39.877 552.793 39.7207C552.943 39.5579 553.148 39.4766 553.408 39.4766C553.669 39.4766 553.874 39.5579 554.023 39.7207C554.173 39.877 554.248 40.069 554.248 40.2969C554.248 40.5247 554.173 40.7135 554.023 40.8633C553.874 41.0065 553.669 41.0781 553.408 41.0781C553.148 41.0781 552.943 41.0065 552.793 40.8633C552.65 40.7135 552.578 40.5247 552.578 40.2969Z" fill="#303338"/>
<rect x="266" width="17.0681" height="16" rx="8" fill="#303338"/>
<rect x="274.5" y="1.5" width="14.0681" height="13" rx="6.5" stroke="#828282" stroke-opacity="0.63" stroke-width="3"/>
</svg>
