<svg width="108" height="21" viewBox="0 0 108 21" fill="none" xmlns="http://www.w3.org/2000/svg">
<rect width="21" height="21" rx="10.5" fill="#D65D38"/>
<rect x="13.9688" y="3" width="15" height="15" rx="7.5" stroke="#5A4AAA" stroke-opacity="0.6" stroke-width="6"/>
<path d="M44.7102 9.54545C44.5227 7.38068 42.9375 6.15341 40.7386 6.15341C38.3864 6.15341 36.5284 7.72159 36.5284 10.6364C36.5284 13.5384 38.3352 15.1193 40.7386 15.1193C43.2955 15.1193 44.5909 13.3466 44.7102 11.8636L42.3068 11.8466C42.1875 12.5923 41.6591 13.0568 40.7898 13.0568C39.6349 13.0568 38.9659 12.2386 38.9659 10.6364C38.9659 9.11932 39.6136 8.21591 40.8068 8.21591C41.7188 8.21591 42.2386 8.75284 42.3068 9.54545H44.7102ZM48.9727 15.1193C51.1033 15.1193 52.3647 13.7557 52.3647 11.7443C52.3647 9.73295 51.1033 8.36932 48.9727 8.36932C46.842 8.36932 45.5806 9.73295 45.5806 11.7443C45.5806 13.7557 46.842 15.1193 48.9727 15.1193ZM48.9897 13.3807C48.359 13.3807 47.984 12.7543 47.984 11.7273C47.984 10.7003 48.359 10.0739 48.9897 10.0739C49.5863 10.0739 49.9613 10.7003 49.9613 11.7273C49.9613 12.7543 49.5863 13.3807 48.9897 13.3807ZM53.3192 15H55.6715V11.1818C55.6715 10.6108 55.9698 10.2614 56.4556 10.2614C56.9414 10.2614 57.2567 10.6108 57.2567 11.1818V15H59.5067V11.1818C59.5067 10.6108 59.805 10.2614 60.2908 10.2614C60.7766 10.2614 61.092 10.6108 61.092 11.1818V15H63.4442V10.5852C63.4442 9.2429 62.5835 8.36932 61.3306 8.36932C60.359 8.36932 59.5749 8.89773 59.3533 9.69886H59.2852C59.1488 8.89773 58.4158 8.36932 57.4954 8.36932C56.5877 8.36932 55.8931 8.88068 55.6204 9.69886H55.5522V8.45455H53.3192V15ZM68.8487 12.1364C68.853 12.7841 68.478 13.1761 67.8942 13.1761C67.3018 13.1761 66.9609 12.7841 66.9567 12.1364V8.45455H64.6044V12.6307C64.6087 14.0625 65.5121 15.0852 66.8885 15.0852C67.8643 15.0852 68.6143 14.5909 68.8999 13.7557H68.968V15H71.201V8.45455H68.8487V12.1364ZM74.7496 11.3182C74.7539 10.6705 75.1204 10.2784 75.7042 10.2784C76.2965 10.2784 76.646 10.6705 76.6417 11.3182V15H78.994V10.8239C78.9982 9.40057 78.0991 8.36932 76.7099 8.36932C75.7468 8.36932 74.984 8.87216 74.6985 9.69886H74.6303V8.45455H72.3974V15H74.7496V11.3182ZM80.1552 15H82.5075V8.45455H80.1552V15ZM81.3313 7.77273C81.9705 7.77273 82.4904 7.29119 82.4904 6.69886C82.4904 6.10653 81.9705 5.625 81.3313 5.625C80.6921 5.625 80.1722 6.10653 80.1722 6.69886C80.1722 7.29119 80.6921 7.77273 81.3313 7.77273ZM86.0753 15.0852C86.9957 15.0852 87.6264 14.5909 87.8991 13.9261H87.9503V15H90.2855V6.27273H87.9332V9.59659H87.8991C87.6435 8.93182 87.0298 8.36932 86.0582 8.36932C84.7628 8.36932 83.5014 9.35795 83.5014 11.7273C83.5014 13.9943 84.6776 15.0852 86.0753 15.0852ZM86.9446 13.2784C86.2969 13.2784 85.9219 12.6989 85.9219 11.7273C85.9219 10.7557 86.2969 10.1761 86.9446 10.1761C87.5923 10.1761 87.9844 10.7557 87.9844 11.7273C87.9844 12.6818 87.5923 13.2784 86.9446 13.2784ZM93.2642 15.1023C94.1165 15.1023 94.7599 14.8125 95.1562 14.0795H95.2074V15H97.4062V10.517C97.4062 9.30682 96.2599 8.36932 94.3892 8.36932C92.4332 8.36932 91.4702 9.39205 91.3892 10.5852H93.554C93.6094 10.1804 93.9077 9.98864 94.3551 9.98864C94.7642 9.98864 95.054 10.1761 95.054 10.517V10.5341C95.054 10.9134 94.6364 11.0327 93.5369 11.1136C92.1861 11.2116 91.1335 11.7571 91.1335 13.1932C91.1335 14.4972 92.0114 15.1023 93.2642 15.1023ZM94.0312 13.6193C93.6307 13.6193 93.3494 13.4233 93.3494 13.0568C93.3494 12.7202 93.5881 12.4602 94.1335 12.375C94.5085 12.3153 94.8239 12.2386 95.071 12.1364V12.6818C95.071 13.2784 94.5639 13.6193 94.0312 13.6193ZM104.892 8.45455H102.421L101.364 12.7841H101.296L100.239 8.45455H97.7674L99.9663 15H102.694L104.892 8.45455Z" fill="black"/>
</svg>
